<?xml version="1.0" encoding="UTF-8" standalone="no"?>
<!-- Created with Inkscape (http://www.inkscape.org/) -->

<svg
   width="16"
   height="16"
   viewBox="0 0 16 16"
   version="1.1"
   id="svg1"
   xmlns="http://www.w3.org/2000/svg"
   xmlns:svg="http://www.w3.org/2000/svg">
  <defs
     id="defs1" />
  <g
     id="layer1">
    <path
       style="fill:#ffffff;fill-opacity:1;stroke:none;stroke-width:0.0655278"
       d="M 6.2501053,2.6821139 C 6.206988,2.5802692 6.132509,2.4922242 6.0553829,2.4130941 5.544869,1.8893351 4.8745467,2.2072124 4.4936534,2.7030828 4.0292841,3.3076276 3.7774281,4.1014004 3.7774281,4.8628785 c 0,0.229338 0.029049,0.4890482 0.079879,0.7129422 0.030916,0.1361675 0.1056313,0.2798679 0.1129041,0.4193779 0.00518,0.098836 -0.07001,0.202971 -0.1038618,0.2935643 C 3.7826438,6.5127972 3.7542907,6.8653983 3.629237,7.0601463 3.5309454,7.2132296 3.1618864,7.3223386 2.9999279,7.405243 2.4921728,7.665161 2.0051769,8.0091255 1.5953202,8.4058765 1.3889863,8.6056176 1.1856209,8.808649 1.2456771,9.1195632 c 0.045764,0.2369193 0.3165909,0.3393626 0.5170863,0.4089912 0.5056648,0.175611 1.0102942,0.3629032 1.5097601,0.5555776 -0.6191,0.632219 -1.1331327,1.852391 -0.549706,2.663049 0.091732,0.127461 0.2087584,0.246556 0.3400171,0.333318 0.9325455,0.616399 2.0124696,-0.229118 2.2646395,-1.151105 L 4.8661592,11.551955 C 4.7898914,11.945019 4.5722868,12.353195 4.2161235,12.561049 3.6898503,12.86818 3.105539,12.595029 3.0454239,11.971331 2.9880674,11.376194 3.4025634,10.740158 3.7970538,10.335759 3.9598116,10.168911 4.1760795,10.031461 4.320968,9.8534735 L 1.8466389,8.951812 C 2.2707675,8.5279666 2.76678,8.1737365 3.2934924,7.8888708 3.4775533,7.7893243 3.667525,7.6983541 3.8596524,7.6156921 3.9318443,7.5846346 4.0631948,7.5605641 4.110781,7.4942646 4.2098983,7.356153 4.2122312,7.0436313 4.2623009,6.8758919 4.3156537,6.6971459 4.3770139,6.5193821 4.4594674,6.3516697 4.5031418,6.2628323 4.5876399,6.1584059 4.5971872,6.0581051 4.6174026,5.8458397 4.4200853,5.5454564 4.3866924,5.324194 4.2949534,4.7162908 4.3817779,4.1245245 4.6325919,3.5628072 4.758307,3.2812835 5.0398079,2.7348559 5.3903807,2.707808 5.8100337,2.6754301 6.0356591,3.4341356 6.0823541,3.7515273 H 6.103323 C 6.5040254,3.1941341 6.9853662,2.6511225 7.5921143,2.3138792 c 0.36271,-0.2015989 0.7809081,-0.1940998 0.8159122,0.305328 0.010077,0.1442246 0.00736,0.2959116 0.00108,0.4403466 -0.00861,0.1956451 -0.045845,0.3952453 -0.083057,0.587129 C 8.6792081,3.4996457 9.0142323,3.3234455 9.3744905,3.190156 9.7061273,3.0674578 10.442259,2.789006 10.757533,3.0468527 c 0.231942,0.189695 0.15833,0.600855 0.09291,0.8533329 -0.183465,0.7081822 -0.583191,1.3740318 -1.1404595,1.8554395 -0.2415947,0.2087073 -0.4894339,0.3951056 -0.7758486,0.5383147 -0.086629,0.043315 -0.2997177,0.085231 -0.328838,0.1863419 -0.04886,0.1696494 -0.00664,0.4078967 -0.00664,0.5843302 v 1.2581335 4.1099016 c 0.3269249,0 0.661522,-0.02342 0.9855368,-0.0019 0.086629,0.0057 0.1899459,-0.03075 0.2725961,-0.0059 0.2632252,0.07906 0.5599602,0.409073 0.7758482,0.57836 0.592811,0.464851 1.175294,0.985153 1.803325,1.400515 V 12.9359 c 0,-0.12473 -0.05609,-0.437909 0.03653,-0.532538 0.05424,-0.05541 0.16644,-0.0314 0.236056,-0.03445 0.157209,-0.0069 0.312103,-0.03382 0.461316,-0.08307 0.563127,-0.185863 1.085455,-0.540188 1.352723,-1.090367 0.276665,-0.569521 0.240913,-1.144952 0.240913,-1.7613864 V 7.5888355 c 0,-0.8874742 -0.0077,-1.7499961 -0.775849,-2.3554564 C 13.137719,4.5633883 12.148334,4.7925003 11.156886,4.7160975 11.531469,4.1134183 11.750837,2.7193185 10.863322,2.4456811 10.265027,2.2612165 9.5357738,2.5556871 8.9761208,2.7450218 8.9761208,2.572883 8.9651374,2.407175 8.9126074,2.2417685 8.8771735,2.13044 8.8261861,2.0208258 8.7555793,1.9273157 8.2050549,1.1981795 7.154133,1.8363382 6.6485141,2.2871844 6.5082257,2.4122738 6.3826876,2.5492511 6.2501053,2.6821152 M 6.313012,6.9066028 C 5.3418181,7.0813995 5.6442223,8.5419876 6.6065764,8.3611086 7.5251318,8.1884612 7.2233305,6.7427617 6.313012,6.9066028 m 3.837307,1.0036588 C 11.059556,7.750828 11.319132,9.1364943 10.401946,9.2985605 9.5537806,9.4484296 9.3133058,8.0570302 10.150319,7.9102616 m 2.180765,-6.48e-5 c 0.900018,-0.1502932 1.155517,1.2252188 0.251627,1.3821999 -0.869233,0.1509621 -1.113527,-1.238272 -0.251627,-1.3821999 z"
       id="path1" />
  </g>
</svg>
