<?xml version="1.0" encoding="UTF-8" standalone="no"?>
<!-- Created with Inkscape (http://www.inkscape.org/) -->

<svg
   width="128"
   height="128"
   viewBox="0 0 128 128"
   version="1.1"
   id="svg1"
   xmlns="http://www.w3.org/2000/svg"
   xmlns:svg="http://www.w3.org/2000/svg">
  <defs
     id="defs1" />
  <g
     id="layer1"
     transform="translate(123.60844,127.07182)">
    <path
       style="fill:#ffffff;fill-opacity:1;stroke:none;stroke-width:0.0313979"
       d="m -60.446892,-65.619842 c -0.02066,-0.0488 -0.05635,-0.09099 -0.0933,-0.128902 -0.244615,-0.250962 -0.565803,-0.09865 -0.748309,0.138949 -0.222506,0.289671 -0.343184,0.670011 -0.343184,1.034877 0,0.109888 0.01391,0.23433 0.03827,0.34161 0.01482,0.06524 0.05062,0.1341 0.0541,0.200947 0.0025,0.04735 -0.03355,0.09726 -0.04977,0.140662 -0.04011,0.107348 -0.05369,0.276298 -0.113614,0.369613 -0.04709,0.07335 -0.223932,0.12563 -0.301536,0.165354 -0.243294,0.124541 -0.47664,0.289354 -0.673025,0.479459 -0.09887,0.09571 -0.196309,0.19299 -0.167532,0.341966 0.02193,0.113522 0.151694,0.162607 0.247764,0.19597 0.242291,0.08414 0.484087,0.173887 0.723409,0.266208 -0.296646,0.302931 -0.542946,0.887582 -0.263395,1.276013 0.04395,0.06107 0.100028,0.118139 0.162921,0.159711 0.446834,0.295351 0.964285,-0.109783 1.085113,-0.551557 l -0.221042,-0.180853 c -0.03654,0.188339 -0.14081,0.383918 -0.311467,0.483512 -0.252167,0.147164 -0.532142,0.01628 -0.560946,-0.282565 -0.02748,-0.285163 0.171124,-0.589922 0.360147,-0.783693 0.07798,-0.07995 0.181611,-0.145805 0.251036,-0.231089 l -1.185587,-0.432035 c 0.203223,-0.203088 0.44089,-0.372819 0.693267,-0.509314 0.08819,-0.0477 0.179219,-0.09128 0.271278,-0.130895 0.0346,-0.01488 0.09752,-0.02642 0.120329,-0.05818 0.04749,-0.06618 0.04861,-0.215922 0.0726,-0.296296 0.02557,-0.08565 0.05496,-0.170823 0.09447,-0.251183 0.02093,-0.04257 0.06142,-0.0926 0.06599,-0.140663 0.0097,-0.101708 -0.08486,-0.245638 -0.10086,-0.351657 -0.04396,-0.29128 -0.0024,-0.574828 0.117824,-0.843978 0.06024,-0.134893 0.19512,-0.396716 0.363099,-0.409676 0.201078,-0.01551 0.309187,0.348023 0.331561,0.500103 h 0.01005 c 0.191999,-0.267078 0.422635,-0.527265 0.713361,-0.688856 0.173795,-0.0966 0.374176,-0.09301 0.390948,0.1463 0.0048,0.06911 0.0035,0.141786 5.18e-4,0.210993 -0.0042,0.09375 -0.02197,0.189383 -0.0398,0.281326 0.169218,-0.07046 0.329746,-0.15488 0.502366,-0.218746 0.158905,-0.0588 0.511627,-0.192214 0.662691,-0.06867 0.111136,0.09089 0.07587,0.287903 0.04452,0.408878 -0.08791,0.33933 -0.279439,0.658375 -0.546457,0.889043 -0.115761,0.100003 -0.234515,0.189317 -0.371752,0.257937 -0.04151,0.02075 -0.14361,0.04084 -0.157564,0.08929 -0.02341,0.08129 -0.0032,0.195446 -0.0032,0.279984 v 0.60284 1.96928 c 0.156648,0 0.316971,-0.01123 0.472224,-9.29e-4 0.04151,0.0027 0.09102,-0.01474 0.130616,-0.0029 0.126126,0.03788 0.268308,0.196009 0.371752,0.277125 0.284048,0.222735 0.563148,0.47204 0.864071,0.671063 v -0.703314 c 0,-0.05976 -0.02688,-0.209826 0.0175,-0.255168 0.02599,-0.02654 0.07975,-0.01504 0.113108,-0.01651 0.07533,-0.0033 0.149545,-0.0162 0.221042,-0.03981 0.269824,-0.08906 0.520101,-0.258833 0.648164,-0.522454 0.132565,-0.272889 0.115435,-0.548609 0.115435,-0.843977 v -0.884117 c 0,-0.425237 -0.0038,-0.838518 -0.371752,-1.128628 -0.407252,-0.321029 -0.881321,-0.211249 -1.356379,-0.247858 0.179484,-0.288777 0.284595,-0.956766 -0.140662,-1.087881 -0.286676,-0.08839 -0.636101,0.05271 -0.904262,0.143431 0,-0.08248 -0.0052,-0.161881 -0.03043,-0.241136 -0.01697,-0.05334 -0.04141,-0.105866 -0.07524,-0.150673 -0.263786,-0.349368 -0.76734,-0.04358 -1.00961,0.172433 -0.06722,0.05993 -0.127372,0.125571 -0.190899,0.189233 m 0.03014,2.024185 c -0.465352,0.08376 -0.320453,0.783601 0.140664,0.696933 0.440129,-0.08273 0.29552,-0.77544 -0.140664,-0.696933 m 1.838664,0.480907 c 0.435666,-0.07639 0.560043,0.587555 0.120569,0.665211 -0.406402,0.07181 -0.521627,-0.594885 -0.120569,-0.665211 m 1.044926,-3e-5 c 0.431247,-0.07202 0.55367,0.587069 0.120568,0.662287 -0.416498,0.07234 -0.533552,-0.593324 -0.120568,-0.662287 z"
       id="path1" />
    <rect
       style="fill:#d35500;fill-opacity:1;stroke-width:0.480016"
       id="rect1"
       width="128"
       height="128"
       x="-123.60844"
       y="-127.07182"
       ry="28.054398" />
    <path
       style="fill:#ffff00;fill-opacity:1;stroke:none;stroke-width:0.479155"
       d="m -72.403986,-101.95751 c -0.315284,-0.74471 -0.859891,-1.38852 -1.423856,-1.96713 -3.733003,-3.82985 -8.63456,-1.50546 -11.419751,2.12046 -3.395578,4.42058 -5.237201,10.22483 -5.237201,15.792939 0,1.676975 0.212405,3.576039 0.584089,5.213208 0.226064,0.995688 0.772393,2.046463 0.825581,3.06659 0.03788,0.722716 -0.511932,1.484171 -0.759467,2.146608 -0.612068,1.638197 -0.81939,4.2165 -1.733813,5.640543 -0.718731,1.119382 -3.417376,1.917214 -4.601665,2.523432 -3.712833,1.900581 -7.273851,4.415733 -10.270831,7.316871 -1.50876,1.460555 -2.99581,2.945169 -2.55666,5.218649 0.33463,1.732407 2.31498,2.481499 3.78105,2.990639 3.69754,1.284107 7.387515,2.653646 11.039726,4.06252 -4.527005,4.622938 -8.285736,13.545127 -4.019583,19.472852 0.670775,0.932024 1.526501,1.802877 2.486289,2.437299 6.818996,4.507256 14.715658,-1.675356 16.559596,-8.417151 l -3.373257,-2.759931 c -0.557683,2.874181 -2.148864,5.858865 -4.753218,7.378739 -3.84823,2.245818 -8.120847,0.248471 -8.560435,-4.312149 -0.419402,-4.351785 2.611495,-9.002644 5.4961,-11.959704 1.190125,-1.22003 2.771524,-2.225096 3.830983,-3.526581 l -18.092881,-6.59317 c 3.10132,-3.09926 6.728285,-5.689475 10.57974,-7.772482 1.3459,-0.727908 2.73502,-1.393104 4.139894,-1.997548 0.527885,-0.2271 1.488355,-0.403109 1.836312,-0.887907 0.724774,-1.009905 0.741834,-3.295139 1.107949,-4.521689 0.390128,-1.307034 0.838814,-2.606885 1.441734,-3.833241 0.319356,-0.6496 0.937229,-1.413192 1.007042,-2.146609 0.147815,-1.552135 -1.295017,-3.748609 -1.539199,-5.366542 -0.670814,-4.445127 -0.0359,-8.772257 1.798078,-12.879672 0.919258,-2.058569 2.977669,-6.054183 5.541138,-6.251953 3.068607,-0.23676 4.718434,5.311074 5.05988,7.631924 h 0.15333 c 2.930031,-4.075798 6.449711,-8.046424 10.886397,-10.512424 2.652218,-1.47415 5.710185,-1.41931 5.966149,2.23262 0.07394,1.05461 0.05396,2.16377 0.0077,3.219929 -0.06267,1.430598 -0.335169,2.890124 -0.607281,4.293218 2.582406,-1.075174 5.03218,-2.363584 7.666478,-3.338227 2.425003,-0.897204 7.807781,-2.93331 10.113138,-1.047879 1.696016,1.387104 1.157733,4.393602 0.679442,6.239785 -1.341538,5.178395 -4.26443,10.047246 -8.339307,13.567408 -1.766596,1.526125 -3.578856,2.889115 -5.673194,3.93629 -0.633443,0.316725 -2.191606,0.623234 -2.404542,1.362576 -0.357259,1.240517 -0.04874,2.982638 -0.04874,4.272763 v 9.199773 30.052592 c 2.390552,0 4.837213,-0.17125 7.206489,-0.0137 0.633443,0.04212 1.388926,-0.22482 1.993284,-0.04332 1.924765,0.57809 4.09457,2.991235 5.673194,4.229103 4.33477,3.399099 8.594025,7.203671 13.186341,10.240904 v -10.733067 c 0,-0.912057 -0.410205,-3.202101 0.267177,-3.894048 0.396597,-0.40514 1.217054,-0.229593 1.726107,-0.251888 1.149541,-0.05033 2.282167,-0.247277 3.373251,-0.607391 4.117715,-1.359078 7.937104,-3.949984 9.891433,-7.973026 2.023039,-4.164473 1.761613,-8.372163 1.761613,-12.879682 v -13.493002 c 0,-6.489424 -0.05664,-12.796389 -5.673192,-17.223665 -6.215165,-4.899134 -13.44978,-3.22381 -20.699489,-3.782482 2.739041,-4.406932 4.343108,-14.600924 -2.146613,-16.601824 -4.374876,-1.34885 -9.707342,0.80439 -13.799661,2.18885 0,-1.25872 -0.07997,-2.47042 -0.464396,-3.67992 -0.258696,-0.81405 -0.631527,-1.61557 -1.147815,-2.29934 -4.025573,-5.33163 -11.710162,-0.66525 -15.407369,2.63144 -1.025823,0.91469 -1.943788,1.9163 -2.913262,2.88783 m 0.459989,30.890463 c -7.101605,1.278154 -4.890356,11.958325 2.146614,10.635694 6.716697,-1.262438 4.509853,-11.833741 -2.146614,-10.635694 m 28.059308,7.338993 c 6.648561,-1.165816 8.546637,8.966507 1.839955,10.151572 -6.201989,1.09588 -7.960391,-9.078365 -1.839955,-10.151572 m 15.946273,-4.73e-4 c 6.581144,-1.098981 8.449418,8.959093 1.839955,10.106976 -6.356037,1.103872 -8.142374,-9.054543 -1.839955,-10.106976 z"
       id="path1-0" />
  </g>
</svg>
